<svg width="800" height="600" version="1.1" viewBox="0 0 211.67 158.75" xmlns="http://www.w3.org/2000/svg" xmlns:xlink="http://www.w3.org/1999/xlink">
 <defs>
  <linearGradient id="b" x1="-34.131" x2="-34.131" y1="141.42" y2="173.7" gradientTransform="matrix(3.7559 0 0 4.1379 232.54 -436.01)" gradientUnits="userSpaceOnUse">
   <stop stop-color="#168db5" offset="0"/>
   <stop stop-color="#b6e6f7" offset="1"/>
  </linearGradient>
  <filter id="c" x="-.5352" y="-.5352" width="2.0704" height="2.0704" color-interpolation-filters="sRGB">
   <feGaussianBlur stdDeviation="11.38381"/>
  </filter>
  <filter id="a" x="-.82228" y="-.91821" width="2.6446" height="2.8364" color-interpolation-filters="sRGB">
   <feGaussianBlur stdDeviation="3.0676194"/>
  </filter>
  <filter id="d" x="-.011793" y="-.029196" width="1.0236" height="1.0584" color-interpolation-filters="sRGB">
   <feGaussianBlur stdDeviation="3.9169729"/>
  </filter>
 </defs>
 <g transform="translate(0 -138.25)">
  <rect x="-2.5431e-6" y="138.25" width="211.67" height="158.75" fill="url(#b)"/>
 </g>
 <g>
  <g transform="matrix(-.71425 0 0 .71425 154.07 5.879)" opacity=".712">
   <circle cx="174.93" cy="34.603" r="25.524" fill="#ffbb16" filter="url(#c)"/>
   <circle cx="174.93" cy="34.603" r="25.524" fill="#ffbb16"/>
   <path d="m181.29 51.368c-1.4362 3.2279-5.1137 5.1649-9.6472 5.0812-4.5335-0.08364-9.2343-2.1752-12.332-5.4867-3.0973-3.3115-4.321-8.5427-2.8849-11.771 7.5666 7.7156 15.54 15.353 24.864 12.176z" fill="#ffebb9"/>
   <circle transform="rotate(7.3647)" cx="168.86" cy="11.836" r="5.3454" fill="#ffebb9"/>
   <circle transform="rotate(-11.07)" cx="155.39" cy="66.232" r="2.4054"/>
   <circle transform="rotate(.27881)" cx="180.31" cy="39.189" r="5.3454" fill="#ffebb9"/>
   <circle transform="rotate(.27881)" cx="179.25" cy="40.793" r="2.4054"/>
   <ellipse transform="matrix(.79682 0 0 .79682 36.9 10.765)" cx="186.22" cy="53.451" rx="4.4768" ry="4.009" fill="#ff3a16" filter="url(#a)"/>
   <ellipse transform="matrix(.79682 0 0 .79682 5.3624 -6.6075)" cx="186.22" cy="53.451" rx="4.4768" ry="4.009" fill="#ff3a16" filter="url(#a)"/>
  </g>
 </g>
 <path transform="scale(.26458)" d="m498.15 272.19c-21.692-0.73013-43.106 7.067-61.896 22.537-15.153 12.558-28.158 29.764-38.074 50.371-40.415-15.838-83.346-12.171-108.25 11.455-0.15214-0.13265-0.30448-0.26481-0.45704-0.39648-36.576-30.113-81.639-30.113-118.21 0-15.746 13.044-29.166 31.1-39.213 52.758-24.83-3.773-49.861 3.7629-71.502 21.527-36.576 30.112-59.107 85.762-59.107 145.99 260.11 54.119 533.83-32.75 797.14-36.428-2.6e-4 -60.225-22.532-115.87-59.107-145.99-25.939-21.266-56.567-27.715-85.709-18.047-16.868-9.754-35.087-13.822-53.238-11.887-10.341-28.966-26.334-53.05-46.053-69.354-17.152-14.121-36.518-21.871-56.318-22.537z" fill="#b6e5f7" filter="url(#d)" opacity=".41"/>
</svg>
