<svg width="800" height="600" version="1.1" viewBox="0 0 211.67 158.75" xmlns="http://www.w3.org/2000/svg" xmlns:xlink="http://www.w3.org/1999/xlink">
 <defs>
  <linearGradient id="b" x1="-34.131" x2="-34.131" y1="141.42" y2="173.7" gradientTransform="matrix(3.7559 0 0 4.1379 232.54 -436.01)" gradientUnits="userSpaceOnUse">
   <stop stop-color="#168db5" offset="0"/>
   <stop stop-color="#b6e6f7" offset="1"/>
  </linearGradient>
  <filter id="c" x="-.5352" y="-.5352" width="2.0704" height="2.0704" color-interpolation-filters="sRGB">
   <feGaussianBlur stdDeviation="11.38381"/>
  </filter>
  <filter id="a" x="-.82228" y="-.91821" width="2.6446" height="2.8364" color-interpolation-filters="sRGB">
   <feGaussianBlur stdDeviation="3.0676194"/>
  </filter>
 </defs>
 <g transform="translate(0 -138.25)">
  <rect x="-2.5431e-6" y="138.25" width="211.67" height="158.75" fill="url(#b)"/>
 </g>
 <g>
  <circle cx="174.93" cy="34.603" r="25.524" fill="#ffbb16" filter="url(#c)"/>
  <circle cx="174.93" cy="34.603" r="25.524" fill="#ffbb16"/>
  <path transform="rotate(23.986)" d="m186.52-26.764c0 3.533-2.5725 6.7976-6.7486 8.5641-4.176 1.7665-9.3211 1.7665-13.497-1e-6 -4.176-1.7665-7.4206-6.0485-7.4206-9.5815 10.05 3.9735 20.439 7.71 27.666 1.0174z" fill="#ffebb9"/>
  <circle transform="rotate(7.3647)" cx="168.86" cy="11.836" r="5.3454" fill="#ffebb9"/>
  <circle transform="rotate(-11.07)" cx="155.39" cy="66.232" r="2.4054"/>
  <circle transform="rotate(.27881)" cx="180.31" cy="39.189" r="5.3454" fill="#ffebb9"/>
  <circle transform="rotate(.27881)" cx="179.25" cy="40.793" r="2.4054"/>
  <ellipse transform="matrix(.79682 0 0 .79682 36.9 10.765)" cx="186.22" cy="53.451" rx="4.4768" ry="4.009" fill="#ff3a16" filter="url(#a)"/>
  <ellipse transform="matrix(.79682 0 0 .79682 5.3624 -6.6075)" cx="186.22" cy="53.451" rx="4.4768" ry="4.009" fill="#ff3a16" filter="url(#a)"/>
 </g>
</svg>
