<svg width="25" height="23.25" version="1.1" viewBox="0 0 6.6083 6.1516" xmlns="http://www.w3.org/2000/svg" xmlns:xlink="http://www.w3.org/1999/xlink">
 <defs>
  <linearGradient id="b" x1="145.28" x2="131.74" y1="265.62" y2="258.02" gradientUnits="userSpaceOnUse">
   <stop stop-color="#ff3a16" offset="0"/>
   <stop stop-color="#ffdc88" offset="1"/>
  </linearGradient>
  <linearGradient id="a" x1="133.62" x2="145.11" y1="258.19" y2="266.36" gradientUnits="userSpaceOnUse">
   <stop stop-color="#ffdc88" offset="0"/>
   <stop stop-color="#ffbb16" offset="1"/>
  </linearGradient>
  <filter id="c" x="-.059783" y="-.062686" width="1.1196" height="1.1254" color-interpolation-filters="sRGB">
   <feGaussianBlur stdDeviation="0.34650592"/>
  </filter>
 </defs>
 <g transform="translate(-56.235 4.0694)">
  <g transform="translate(-.65045 .88352)">
   <path transform="matrix(.41092 .079005 -.079005 .41092 23.706 -120.38)" d="m144.43 267.37c-0.509 0.54321-3.8204-1.1044-4.5515-0.96449-0.73169 0.14005-3.2029 2.8943-3.8774 2.5778-0.67391-0.31623-0.13019-3.9747-0.48922-4.6268-0.3593-0.6526-3.7424-2.1518-3.6498-2.891 0.0925-0.73864 3.7399-1.3521 4.2492-1.895 0.50963-0.54338 0.89-4.2242 1.6216-4.3646 0.73108-0.14028 2.4416 3.1391 3.1154 3.4556 0.67427 0.31677 4.2925-0.45891 4.6521 0.19353 0.35933 0.65195-2.231 3.2921-2.3238 4.0307-0.0929 0.73915 1.7629 3.9406 1.2535 4.4842z" fill="#1a1a1a" filter="url(#c)"/>
   <path transform="matrix(.41092 .079005 -.079005 .41092 23.552 -120.62)" d="m144.43 267.37c-0.509 0.54321-3.8204-1.1044-4.5515-0.96449-0.73169 0.14005-3.2029 2.8943-3.8774 2.5778-0.67391-0.31623-0.13019-3.9747-0.48922-4.6268-0.3593-0.6526-3.7424-2.1518-3.6498-2.891 0.0925-0.73864 3.7399-1.3521 4.2492-1.895 0.50963-0.54338 0.89-4.2242 1.6216-4.3646 0.73108-0.14028 2.4416 3.1391 3.1154 3.4556 0.67427 0.31677 4.2925-0.45891 4.6521 0.19353 0.35933 0.65195-2.231 3.2921-2.3238 4.0307-0.0929 0.73915 1.7629 3.9406 1.2535 4.4842z" fill="url(#b)"/>
   <path transform="matrix(.3508 .067447 -.067447 .3508 28.882 -103.28)" d="m144.43 267.37c-0.509 0.54321-3.8204-1.1044-4.5515-0.96449-0.73169 0.14005-3.2029 2.8943-3.8774 2.5778-0.67391-0.31623-0.13019-3.9747-0.48922-4.6268-0.3593-0.6526-3.7424-2.1518-3.6498-2.891 0.0925-0.73864 3.7399-1.3521 4.2492-1.895 0.50963-0.54338 0.89-4.2242 1.6216-4.3646 0.73108-0.14028 2.4416 3.1391 3.1154 3.4556 0.67427 0.31677 4.2925-0.45891 4.6521 0.19353 0.35933 0.65195-2.231 3.2921-2.3238 4.0307-0.0929 0.73915 1.7629 3.9406 1.2535 4.4842z" fill="url(#a)"/>
  </g>
 </g>
</svg>
