<?xml version="1.0" encoding="UTF-8"?>
<!-- Created with Inkscape (http://www.inkscape.org/) -->
<svg width="5.8208mm" height="5.5512mm" version="1.1" viewBox="0 0 5.8153 5.5512" xmlns="http://www.w3.org/2000/svg" xmlns:cc="http://creativecommons.org/ns#" xmlns:dc="http://purl.org/dc/elements/1.1/" xmlns:rdf="http://www.w3.org/1999/02/22-rdf-syntax-ns#" xmlns:xlink="http://www.w3.org/1999/xlink">
 <defs>
  <linearGradient id="linearGradient2654" x1="140.19" x2="138.52" y1="267.81" y2="259.28" gradientUnits="userSpaceOnUse">
   <stop stop-color="#ffbb16" offset="0"/>
   <stop stop-color="#ffdc88" offset="1"/>
  </linearGradient>
  <linearGradient id="linearGradient2656" x1="134.7" x2="140.41" y1="239.63" y2="268.75" gradientUnits="userSpaceOnUse">
   <stop stop-color="#fff" offset="0"/>
   <stop stop-color="#fff" stop-opacity="0" offset="1"/>
  </linearGradient>
 </defs>
 <metadata>
  <rdf:RDF>
   <cc:Work rdf:about="">
    <dc:format>image/svg+xml</dc:format>
    <dc:type rdf:resource="http://purl.org/dc/dcmitype/StillImage"/>
    <dc:title/>
   </cc:Work>
  </rdf:RDF>
 </metadata>
 <g transform="translate(-57.082 4.8742)">
  <g transform="matrix(.41844 0 0 .41844 .49088 -111.57)">
   <path transform="rotate(10.883 141.17 278.45)" d="m144.43 267.37c-0.509 0.54321-3.8204-1.1044-4.5515-0.96449-0.73169 0.14005-3.2029 2.8943-3.8774 2.5778-0.67391-0.31623-0.13019-3.9747-0.48922-4.6268-0.3593-0.6526-3.7424-2.1518-3.6498-2.891 0.0925-0.73864 3.7399-1.3521 4.2492-1.895 0.50963-0.54338 0.89-4.2242 1.6216-4.3646 0.73108-0.14028 2.4416 3.1391 3.1154 3.4556 0.67427 0.31677 4.2925-0.45891 4.6521 0.19353 0.35933 0.65195-2.231 3.2921-2.3238 4.0307-0.0929 0.73915 1.7629 3.9406 1.2535 4.4842z" fill="url(#linearGradient2654)"/>
   <path transform="matrix(.83835 .16118 -.16118 .83835 67.85 19.795)" d="m144.43 267.37c-0.509 0.54321-3.8204-1.1044-4.5515-0.96449-0.73169 0.14005-3.2029 2.8943-3.8774 2.5778-0.67391-0.31623-0.13019-3.9747-0.48922-4.6268-0.3593-0.6526-3.7424-2.1518-3.6498-2.891 0.0925-0.73864 3.7399-1.3521 4.2492-1.895 0.50963-0.54338 0.89-4.2242 1.6216-4.3646 0.73108-0.14028 2.4416 3.1391 3.1154 3.4556 0.67427 0.31677 4.2925-0.45891 4.6521 0.19353 0.35933 0.65195-2.231 3.2921-2.3238 4.0307-0.0929 0.73915 1.7629 3.9406 1.2535 4.4842z" fill="url(#linearGradient2656)"/>
  </g>
 </g>
</svg>
